<svg xmlns="http://www.w3.org/2000/svg" width="50" height="66" viewBox="0 0 50 66">
    <path fill="#000" fill-rule="nonzero" d="M38.31 41.516h-4.58v-4.453c1.102-1.296 1.952-2.724 2.665-4.156.28-.05.595-.142.873-.274 1.275-.61 2.45-2.095 3.113-3.973.763-2.165.68-4.441-.166-5.7.114-2.339.045-8.855-4.051-13.425a12.292 12.292 0 0 0-2.258-1.974C33.19 3.23 29.626 0 25.205 0c-4.35 0-8.318 3.154-9.1 7.395-1.558.893-2.872 2.05-3.907 3.466-2.262 3.096-2.971 7.471-2.072 12.098-1.167 1.162-1.418 3.207-.539 5.701.443 1.254 1.123 2.366 1.916 3.132.654.632 1.374 1.014 2.09 1.125.747 1.5 1.635 2.994 2.736 4.336v4.263h-4.652C5.101 41.516.093 52.826.093 58.459c0 .63.364 1.23.934 1.498 8.838 4.149 17.17 5.448 24.104 5.448 3.65 0 6.913-.35 9.657-.832 8.64-1.519 14.05-4.519 14.277-4.646.511-.288.828-.882.828-1.47 0-5.632-5.008-16.941-11.584-16.941zM13.75 25.645c.71-.834 2.733-3.325 3.975-6.077 2.588 2.695 8.137 5.878 19.926 5.895.047.45.012 1.19-.315 2.116-.437 1.238-1.068 1.891-1.355 2.08a1.625 1.625 0 0 0-1.992.883c-1.748 3.934-5.178 8.529-8.996 8.529-2.011 0-3.87-1.274-5.467-3.055a11.03 11.03 0 0 0 2.048.194c.072 0 .142.014.21.013.41.53 1.051.888 1.773.888h2.872c1.24 0 2.235-1.037 2.235-2.277v-.706c0-1.24-.995-2.304-2.235-2.304h-2.872c-.82 0-1.534.47-1.926 1.125a7.085 7.085 0 0 1-2.61-.424c-2.478-.925-4.274-3.297-5.272-6.88zM25.205 3.248c1.94 0 3.44.97 4.497 2.473-1.336-.336-3.02-.51-4.563-.51-1.762.015-3.435.212-4.971.584 1.052-1.544 3.072-2.547 5.037-2.547zm-10.418 9.53c2.038-2.789 5.506-4.282 10.352-4.318v-.001c3.524 0 6.638 1.088 8.567 3.233 2.896 3.22 3.285 8.11 3.274 10.52-8.602-.106-13.124-2.003-15.422-3.601-2.322-1.614-2.802-3.18-2.855-3.373-.134-.832-.88-1.39-1.717-1.327-.847.063-1.495.804-1.495 1.654 0 1.497-1.125 3.648-2.368 5.504-.444-3.29.109-6.163 1.664-8.291zm3.168 32.042c.897 0 1.457-.673 1.457-1.57v-2.84c1.762 1.176 3.53 1.908 5.507 1.908 2.035 0 3.964-.776 5.726-2.015v2.947c0 .897.703 1.57 1.6 1.57h1.739l-8.992 7.032-8.992-7.032h1.955zm16.27 16.561C26.925 62.665 15.73 63 3.4 57.5c.498-4.538 4.053-11.523 7.483-12.505l13.11 10.253a1.622 1.622 0 0 0 2 0l13.11-10.253c3.443.986 7.01 8.016 7.488 12.553-1.791.86-6.212 2.752-12.366 3.834z"/>
</svg>
