<svg xmlns="http://www.w3.org/2000/svg" width="35" height="70" viewBox="0 0 35 70">
    <g fill="#000" fill-rule="nonzero">
        <path d="M32.082 5.833V0L0 5.833V70h35V5.833h-2.918zm-2.916-2.338v2.338H16.304l12.862-2.338zm2.916 63.587H2.914V8.75h29.168v58.332z"/>
        <path d="M20.24 22l-5.025 9.17-2.645-4.599L6 38h23l-8.76-16zm-7.122 12.999h-2.039l1.491-2.597 1.01 1.754-.462.843zm3.314 0l3.808-6.953L24.047 35h-7.615zM22.502 53h-9a1.5 1.5 0 1 0 0 3h9a1.5 1.5 0 0 0 0-3zM27.564 47H7.436C6.644 47 6 47.67 6 48.5S6.644 50 7.436 50h20.128c.794 0 1.436-.67 1.436-1.5s-.642-1.5-1.436-1.5z"/>
    </g>
</svg>
