<svg xmlns="http://www.w3.org/2000/svg" width="53" height="50" viewBox="0 0 53 50">
    <g fill="#000" fill-rule="nonzero">
        <path d="M45.72 23.333v23.104H6.947V23.333H3.333v24.885c0 .984.809 1.782 1.807 1.782h42.387c.998 0 1.806-.798 1.806-1.782V23.333h-3.612z"/>
        <path d="M50.861 10H1.806C.808 10 0 10.804 0 11.797v11.74c0 .992.808 1.796 1.806 1.796H50.86a1.8 1.8 0 0 0 1.806-1.797v-11.74c0-.992-.809-1.796-1.806-1.796zm-1.806 11.74H3.611v-8.146h45.444v8.146z"/>
        <path d="M27.941 11.691C27.82 11.214 24.848 0 16.176 0c-3.773 0-6.843 3.14-6.843 7s3.043 7 6.783 7H26.2c.557 0 1.084-.265 1.425-.717.34-.452.457-1.04.316-1.592zm-11.825-1.375c-1.784 0-3.181-1.457-3.181-3.316 0-1.797 1.484-3.316 3.24-3.316 3.952 0 6.318 3.982 7.456 6.632h-7.515z"/>
        <path d="M36.491 0c-8.672 0-11.643 11.213-11.765 11.691a1.875 1.875 0 0 0 .316 1.592c.34.452.867.717 1.425.717h10.084c3.74 0 6.782-3.14 6.782-7s-3.069-7-6.842-7zm.06 10.316H29.03c1.13-2.65 3.488-6.632 7.463-6.632 1.756 0 3.24 1.519 3.24 3.316 0 1.86-1.397 3.316-3.18 3.316z"/>
        <path d="M24.667 12H28v36.667h-3.333z"/>
    </g>
</svg>
