<svg xmlns="http://www.w3.org/2000/svg" width="50" height="62" viewBox="0 0 50 62">
    <g fill="#000" fill-rule="nonzero">
        <path d="M30.765 30.88a4.455 4.455 0 0 0 3.22-1.384l14.8-15.61a4.453 4.453 0 0 0-.129-6.235l-6.588-6.397A4.414 4.414 0 0 0 38.977 0H10.91c-.507 0-1.007.09-1.479.257l-.046.015-.022.009a4.44 4.44 0 0 0-1.657 1.086L1.232 8.125a4.453 4.453 0 0 0 .094 6.234l15.517 15.249a4.41 4.41 0 0 0 3.11 1.272h3.589v2.707c-6.812.884-12.091 6.722-12.091 13.77 0 7.658 6.23 13.887 13.886 13.887 7.657 0 13.886-6.23 13.886-13.886 0-7.049-5.278-12.887-12.09-13.77V30.88h3.633zm9.302-26.564l6.088 5.91c.33.322.341.855.024 1.19L34.881 23.33l-7.067-6.763L40.067 4.316zm-4.353-.725L25.22 14.085 14.255 3.59h21.459zm-.083 43.767c0 5.677-4.618 10.295-10.295 10.295S15.04 53.035 15.04 47.358s4.618-10.295 10.295-10.295S35.63 41.68 35.63 47.358zm-15.68-20.07a.84.84 0 0 1-.592-.241L3.841 11.797a.849.849 0 0 1-.017-1.187l6.014-6.277L32.41 25.937l-1.032 1.088a.849.849 0 0 1-.613.264H19.952z"/>
        <path d="M26.426 42.132a1.246 1.246 0 0 0-.694-.204.778.778 0 0 0-.424.102L23.38 43.2c-.283.165-.424.423-.424.774 0 .234.068.443.205.628.136.185.307.278.511.278a.647.647 0 0 0 .365-.117l.424-.263v7.435c0 .224.112.397.336.518.224.122.492.183.803.183.312 0 .58-.06.804-.183.224-.121.336-.294.336-.518v-9.29c0-.205-.105-.375-.314-.512z"/>
    </g>
</svg>
