<svg xmlns="http://www.w3.org/2000/svg" width="40" height="67" viewBox="0 0 40 67">
    <g fill="#000" fill-rule="nonzero">
        <path d="M39.885 61V5.135A5.142 5.142 0 0 0 34.75 0H5.182A5.142 5.142 0 0 0 .047 5.135v55.879a5.142 5.142 0 0 0 5.135 5.135H34.75c2.824-.014 5.135-2.311 5.135-5.149zM3.358 11.905h33.203V49.5H3.358V11.905zm1.824-8.594H34.75c1 0 1.824.81 1.824 1.824v3.46H3.358v-3.46c0-1.013.824-1.824 1.824-1.824zM3.358 61v-8.203h33.203V61c0 1-.811 1.824-1.825 1.824H5.182c-1 0-1.824-.81-1.824-1.824z"/>
        <path d="M23.318 56.297H16.6a1.661 1.661 0 1 0 0 3.324h6.717a1.661 1.661 0 1 0 0-3.324z"/>
    </g>
</svg>
