<svg xmlns="http://www.w3.org/2000/svg" width="166" height="35" viewBox="0 0 166 35">
    <path fill="#9B9B9B" fill-rule="nonzero" d="M15.397 25.39c.026.183.04.332.04.449 0 .117-.144.227-.43.331-.964.286-1.928.468-2.892.546-.964.077-1.785.116-2.462.116-2.24 0-3.843-.474-4.807-1.422-.964-.948-1.446-2.344-1.446-4.188V10.117H.664c-.286 0-.469-.071-.547-.214A1.083 1.083 0 0 1 0 9.377V7.273c0-.26.033-.435.098-.526.065-.09.24-.175.527-.253l2.892-.663.274-3.662c.026-.312.11-.533.254-.662.143-.13.358-.234.645-.312L8.285.026c.234-.052.423-.026.567.078.143.104.215.312.215.623v5.221h4.298c.287 0 .463.059.528.176.065.117.098.279.098.487v2.766c0 .26-.026.448-.079.565-.052.117-.234.175-.547.175H9.067v9.897c0 .753.188 1.273.566 1.558.378.286.945.43 1.7.43.183 0 .404-.014.664-.04l.802-.078.8-.078c.261-.026.483-.052.665-.078.417-.078.638.052.664.39l.47 3.273zm21.01-1.519c0 .338-.046.624-.137.857-.091.234-.32.455-.684.663-.6.286-1.244.52-1.934.701-.69.182-1.394.325-2.11.429-.717.104-1.44.182-2.17.234-.73.051-1.42.077-2.07.077-1.772 0-3.238-.168-4.397-.506-1.16-.338-2.091-.799-2.795-1.383-.703-.585-1.198-1.273-1.485-2.065a7.446 7.446 0 0 1-.43-2.552c0-1.013.17-1.942.509-2.786a5.989 5.989 0 0 1 1.524-2.202c.677-.623 1.53-1.11 2.56-1.46 1.029-.351 2.247-.527 3.653-.527h4.3v-.623c0-.364-.04-.714-.118-1.052a1.783 1.783 0 0 0-.489-.877c-.247-.247-.592-.448-1.035-.604-.443-.156-1.03-.233-1.759-.233-.39 0-.833.019-1.328.058-.495.039-.99.09-1.485.156a24 24 0 0 0-1.446.234c-.47.09-.886.188-1.251.292-.339.078-.573.078-.703 0s-.222-.247-.274-.507l-.625-2.727c-.078-.286-.085-.487-.02-.604.065-.117.202-.214.41-.292a18.936 18.936 0 0 1 3.694-.896 27.542 27.542 0 0 1 3.849-.273c2.84 0 4.924.604 6.253 1.812 1.328 1.207 1.993 2.993 1.993 5.357v11.3zm-5.573-6.74h-3.087a9.51 9.51 0 0 0-1.172.078 3.163 3.163 0 0 0-1.153.37 2.458 2.458 0 0 0-.88.837c-.234.364-.351.858-.351 1.481 0 .91.306 1.546.918 1.91.612.363 1.44.545 2.482.545.156 0 .364-.007.625-.02.26-.013.54-.039.84-.078.3-.039.606-.09.919-.156.312-.064.599-.149.86-.253v-4.714zM46.052 33.69c0 .286-.046.467-.137.545-.091.078-.32.117-.684.117h-4.064c-.287 0-.495-.039-.626-.117-.13-.078-.195-.26-.195-.545V8.286c0-.286.046-.513.137-.682.09-.169.306-.344.645-.526 1.25-.571 2.65-.974 4.2-1.208 1.55-.233 3.03-.35 4.436-.35 1.85 0 3.407.279 4.67.837 1.264.559 2.28 1.312 3.048 2.26.769.948 1.323 2.072 1.661 3.37.339 1.3.508 2.689.508 4.17 0 1.454-.182 2.824-.547 4.11-.365 1.286-.925 2.41-1.68 3.37-.756.962-1.713 1.721-2.873 2.28-1.159.558-2.52.838-4.083.838-.782 0-1.505-.033-2.17-.098a19.63 19.63 0 0 1-2.246-.37v7.403zm7.66-17.65c0-1.065-.105-1.961-.313-2.689-.209-.727-.515-1.311-.919-1.753a3.298 3.298 0 0 0-1.485-.935c-.586-.182-1.244-.273-1.973-.273-.365 0-.84.04-1.427.117-.586.078-1.1.182-1.543.312v10.637c.677.181 1.283.298 1.817.35.534.052 1.01.078 1.426.078 1.303 0 2.365-.441 3.185-1.325.82-.883 1.231-2.39 1.231-4.52zm17.194 7.325c0 .987-.345 1.818-1.035 2.493-.69.676-1.544 1.013-2.56 1.013-.495 0-.964-.09-1.407-.272a3.656 3.656 0 0 1-1.153-.74 3.569 3.569 0 0 1-.781-1.111 3.295 3.295 0 0 1-.293-1.383c0-.494.097-.955.293-1.383.195-.429.456-.8.781-1.11.326-.313.71-.56 1.153-.741a3.668 3.668 0 0 1 1.407-.273c1.016 0 1.87.338 2.56 1.013.69.675 1.035 1.507 1.035 2.494zm22.12.506c0 .338-.046.624-.137.857-.091.234-.32.455-.684.663-.6.286-1.244.52-1.935.701-.69.182-1.393.325-2.11.429-.716.104-1.44.182-2.169.234-.73.051-1.42.077-2.071.077-1.772 0-3.237-.168-4.397-.506-1.159-.338-2.09-.799-2.794-1.383-.703-.585-1.198-1.273-1.485-2.065a7.446 7.446 0 0 1-.43-2.552c0-1.013.17-1.942.508-2.786a5.989 5.989 0 0 1 1.524-2.202c.678-.623 1.531-1.11 2.56-1.46 1.03-.351 2.247-.527 3.654-.527h4.299v-.623c0-.364-.04-.714-.117-1.052a1.783 1.783 0 0 0-.489-.877c-.247-.247-.593-.448-1.035-.604-.443-.156-1.03-.233-1.759-.233-.39 0-.834.019-1.329.058-.495.039-.99.09-1.485.156a24 24 0 0 0-1.446.234c-.469.09-.886.188-1.25.292-.339.078-.573.078-.704 0-.13-.078-.221-.247-.273-.507l-.626-2.727c-.078-.286-.084-.487-.02-.604.066-.117.203-.214.411-.292a18.936 18.936 0 0 1 3.693-.896 27.542 27.542 0 0 1 3.85-.273c2.84 0 4.924.604 6.252 1.812 1.33 1.207 1.993 2.993 1.993 5.357v11.3zm-5.706-6.74h-3.087a9.51 9.51 0 0 0-1.173.078 3.163 3.163 0 0 0-1.153.37 2.458 2.458 0 0 0-.879.837c-.234.364-.352.858-.352 1.481 0 .91.306 1.546.919 1.91.612.363 1.44.545 2.481.545.157 0 .365-.007.626-.02.26-.013.54-.039.84-.078.3-.039.605-.09.918-.156.313-.064.6-.149.86-.253v-4.714zm26.73-8.26c0 .39-.058.772-.175 1.149a3.06 3.06 0 0 1-.606 1.071l-9.38 10.52.079.195h9.535c.287 0 .482.046.587.137.104.09.156.279.156.565v3.156c0 .285-.046.48-.137.584-.091.104-.28.156-.567.156H98.34c-.651 0-1.126-.15-1.426-.448-.3-.299-.45-.708-.45-1.228V23.56c0-.39.06-.78.176-1.17.118-.389.372-.805.762-1.246l9.34-10.52-.078-.156h-8.52c-.312 0-.507-.052-.585-.156-.078-.104-.117-.299-.117-.584v-3.04c0-.493.247-.74.742-.74h13.912c.652 0 1.14.098 1.466.293.326.194.488.616.488 1.266V8.87zm6.147 7.417h1.772v-2.372l-.047-1.263c.617.524 1.28.832 1.942.832 1.68 0 3.236-1.494 3.236-4.081 0-2.341-1.094-3.85-2.974-3.85-.832 0-1.649.446-2.28.985h-.062l-.124-.8h-1.463v10.549zm3.297-4.266c-.447 0-.97-.17-1.525-.632V7.864c.585-.57 1.11-.847 1.664-.847 1.14 0 1.633.893 1.633 2.402 0 1.71-.77 2.603-1.772 2.603zm7.643 1.463c1.033 0 1.772-.508 2.435-1.294h.046l.139 1.109h1.448V5.739h-1.772v5.174c-.57.74-1.017 1.047-1.68 1.047-.816 0-1.17-.462-1.17-1.71V5.74h-1.773v4.743c0 1.91.71 3.003 2.327 3.003zm8.044 0c.416 0 .724-.062.94-.154l-.231-1.325c-.139.031-.2.031-.278.031-.185 0-.385-.154-.385-.585V2.428h-1.772v8.932c0 1.309.462 2.125 1.726 2.125zm4.561 0c1.91 0 2.943-1.047 2.943-2.341 0-1.417-1.14-1.91-2.173-2.295-.816-.292-1.571-.523-1.571-1.124 0-.477.354-.831 1.11-.831.6 0 1.14.261 1.663.646l.817-1.078c-.616-.477-1.464-.908-2.512-.908-1.695 0-2.758.94-2.758 2.264 0 1.262 1.125 1.832 2.127 2.202.8.308 1.618.585 1.618 1.216 0 .524-.386.909-1.202.909-.77 0-1.418-.323-2.096-.847l-.832 1.14c.74.6 1.834 1.047 2.866 1.047zm6.78 0c1.032 0 1.772-.508 2.435-1.294h.046l.139 1.109h1.448V5.739h-1.772v5.174c-.57.74-1.017 1.047-1.68 1.047-.816 0-1.17-.462-1.17-1.71V5.74h-1.773v4.743c0 1.91.71 3.003 2.327 3.003zm5.717-.185h5.917v-1.417h-3.683l3.56-5.205v-.94h-5.393V7.14h3.174l-3.575 5.205v.955zm-32.806 13.415c.955 0 1.864-.339 2.588-.816l-.6-1.11c-.555.355-1.11.555-1.757.555-1.218 0-2.08-.77-2.235-2.11h4.808c.046-.184.077-.523.077-.862 0-2.11-1.079-3.588-3.128-3.588-1.772 0-3.482 1.509-3.482 3.973 0 2.495 1.633 3.958 3.729 3.958zm-2.02-4.682c.155-1.216.925-1.879 1.82-1.879 1.032 0 1.54.709 1.54 1.88h-3.36zm8.322 4.682c.416 0 .724-.062.94-.154l-.231-1.325c-.139.031-.2.031-.278.031-.184 0-.385-.154-.385-.585v-9.024h-1.772v8.932c0 1.309.462 2.125 1.726 2.125zm4.284 0c.893 0 1.664-.447 2.342-1.017h.062l.123.832h1.464v-4.481c0-2.11-.94-3.265-2.82-3.265-1.202 0-2.28.462-3.113.985l.647 1.186c.678-.4 1.387-.739 2.127-.739 1.032 0 1.356.678 1.387 1.478-3.113.34-4.454 1.186-4.454 2.803 0 1.325.91 2.218 2.235 2.218zm.57-1.386c-.632 0-1.094-.293-1.094-.97 0-.755.678-1.294 2.743-1.556v1.694c-.57.524-1.033.832-1.65.832zm5.547 1.201h1.772v-5.282c.632-.616 1.064-.94 1.726-.94.832 0 1.187.462 1.187 1.71v4.512h1.772v-4.743c0-1.91-.71-3.003-2.327-3.003-1.033 0-1.803.539-2.481 1.201h-.062l-.123-1.016h-1.464v7.561zm10.355.185c.416 0 .724-.062.94-.154l-.23-1.325c-.14.031-.201.031-.278.031-.185 0-.386-.154-.386-.585v-9.024h-1.772v8.932c0 1.309.463 2.125 1.726 2.125zm4.284 0c.894 0 1.664-.447 2.342-1.017h.062l.123.832h1.464v-4.481c0-2.11-.94-3.265-2.82-3.265-1.202 0-2.28.462-3.113.985l.648 1.186c.678-.4 1.386-.739 2.126-.739 1.033 0 1.356.678 1.387 1.478-3.113.34-4.453 1.186-4.453 2.803 0 1.325.909 2.218 2.234 2.218zm.57-1.386c-.632 0-1.094-.293-1.094-.97 0-.755.678-1.294 2.743-1.556v1.694c-.57.524-1.032.832-1.649.832zm5.548 1.201h1.772v-4.62c.462-1.14 1.186-1.555 1.787-1.555.324 0 .524.046.786.123l.308-1.54c-.231-.108-.478-.154-.863-.154-.801 0-1.602.539-2.142 1.524h-.061l-.124-1.34h-1.463v7.562z"/>
</svg>
