<svg xmlns="http://www.w3.org/2000/svg" xmlns:xlink="http://www.w3.org/1999/xlink" width="63" height="478" viewBox="0 0 63 478"><svg width="60" height="76" viewBox="-5 -5 60 76" id="call-center-girl" y="0"><path d="M38.31 41.516h-4.58v-4.453c1.102-1.296 1.952-2.724 2.665-4.156.28-.05.595-.142.873-.274 1.275-.61 2.45-2.095 3.113-3.973.763-2.165.68-4.441-.166-5.7.114-2.339.045-8.855-4.051-13.425a12.292 12.292 0 0 0-2.258-1.974C33.19 3.23 29.626 0 25.205 0c-4.35 0-8.318 3.154-9.1 7.395-1.558.893-2.872 2.05-3.907 3.466-2.262 3.096-2.971 7.471-2.072 12.098-1.167 1.162-1.418 3.207-.539 5.701.443 1.254 1.123 2.366 1.916 3.132.654.632 1.374 1.014 2.09 1.125.747 1.5 1.635 2.994 2.736 4.336v4.263h-4.652C5.101 41.516.093 52.826.093 58.459c0 .63.364 1.23.934 1.498 8.838 4.149 17.17 5.448 24.104 5.448 3.65 0 6.913-.35 9.657-.832 8.64-1.519 14.05-4.519 14.277-4.646.511-.288.828-.882.828-1.47 0-5.632-5.008-16.941-11.584-16.941zM13.75 25.645c.71-.834 2.733-3.325 3.975-6.077 2.588 2.695 8.137 5.878 19.926 5.895.047.45.012 1.19-.315 2.116-.437 1.238-1.068 1.891-1.355 2.08a1.625 1.625 0 0 0-1.992.883c-1.748 3.934-5.178 8.529-8.996 8.529-2.011 0-3.87-1.274-5.467-3.055a11.03 11.03 0 0 0 2.048.194c.072 0 .142.014.21.013a2.25 2.25 0 0 0 1.773.888h2.872c1.24 0 2.235-1.037 2.235-2.277v-.706c0-1.24-.995-2.304-2.235-2.304h-2.872c-.82 0-1.534.47-1.926 1.125a7.085 7.085 0 0 1-2.61-.424c-2.478-.925-4.274-3.297-5.272-6.88zM25.205 3.248c1.94 0 3.44.97 4.497 2.473-1.336-.336-3.02-.51-4.563-.51-1.762.015-3.435.212-4.971.584 1.052-1.544 3.072-2.547 5.037-2.547zm-10.418 9.53c2.038-2.789 5.506-4.282 10.352-4.318v-.001c3.524 0 6.638 1.088 8.567 3.233 2.896 3.22 3.285 8.11 3.274 10.52-8.602-.106-13.124-2.003-15.422-3.601-2.322-1.614-2.802-3.18-2.855-3.373-.134-.832-.88-1.39-1.717-1.327-.847.063-1.495.804-1.495 1.654 0 1.497-1.125 3.648-2.368 5.504-.444-3.29.109-6.163 1.664-8.291zm3.168 32.042c.897 0 1.457-.673 1.457-1.57v-2.84c1.762 1.176 3.53 1.908 5.507 1.908 2.035 0 3.964-.776 5.726-2.015v2.947c0 .897.703 1.57 1.6 1.57h1.739l-8.992 7.032L16 44.82h1.955zm16.27 16.561C26.925 62.665 15.73 63 3.4 57.5c.498-4.538 4.053-11.523 7.483-12.505l13.11 10.253a1.622 1.622 0 0 0 2 0l13.11-10.253c3.443.986 7.01 8.016 7.488 12.553-1.791.86-6.212 2.752-12.366 3.834z"></path></svg><svg width="20" height="29" viewBox="-5 -5 20 29" id="facebook" y="76"><path fill="#9B9B9B" fill-rule="evenodd" d="M6.137 18.993H2.046V9.499H.001V6.226h2.045V4.262c0-2.669 1.155-4.258 4.433-4.258h2.73v3.273H7.504c-1.278 0-1.362.458-1.362 1.312l-.005 1.637h3.092l-.362 3.273h-2.73v9.494z"></path></svg><svg width="45" height="80" viewBox="-5 -5 45 80" id="flyer-2" y="105"><path d="M32.082 5.833V0L0 5.833V70h35V5.833h-2.918zm-2.916-2.338v2.338H16.304l12.862-2.338zm2.916 63.587H2.914V8.75h29.168v58.332z"></path><path d="M20.24 22l-5.025 9.17-2.645-4.599L6 38h23l-8.76-16zm-7.122 12.999h-2.039l1.491-2.597 1.01 1.754-.462.843zm3.314 0l3.808-6.953L24.047 35h-7.615zM22.502 53h-9a1.5 1.5 0 1 0 0 3h9a1.5 1.5 0 0 0 0-3zm5.062-6H7.436C6.644 47 6 47.67 6 48.5S6.644 50 7.436 50h20.128c.794 0 1.436-.67 1.436-1.5s-.642-1.5-1.436-1.5z"></path></svg><svg width="63" height="60" viewBox="-5 -5 63 60" id="gift" y="185"><path d="M45.72 23.333v23.104H6.947V23.333H3.333v24.885c0 .984.809 1.782 1.807 1.782h42.387c.998 0 1.806-.798 1.806-1.782V23.333h-3.612z"></path><path d="M50.861 10H1.806A1.8 1.8 0 0 0 0 11.797v11.74a1.8 1.8 0 0 0 1.806 1.796H50.86a1.8 1.8 0 0 0 1.806-1.797v-11.74c0-.992-.809-1.796-1.806-1.796zm-1.806 11.74H3.611v-8.146h45.444v8.146z"></path><path d="M27.941 11.691C27.82 11.214 24.848 0 16.176 0c-3.773 0-6.843 3.14-6.843 7s3.043 7 6.783 7H26.2c.557 0 1.084-.265 1.425-.717a1.88 1.88 0 0 0 .316-1.592zm-11.825-1.375c-1.784 0-3.181-1.457-3.181-3.316 0-1.797 1.484-3.316 3.24-3.316 3.952 0 6.318 3.982 7.456 6.632h-7.515z"></path><path d="M36.491 0c-8.672 0-11.643 11.213-11.765 11.691a1.875 1.875 0 0 0 .316 1.592c.34.452.867.717 1.425.717h10.084c3.74 0 6.782-3.14 6.782-7s-3.069-7-6.842-7zm.06 10.316H29.03c1.13-2.65 3.488-6.632 7.463-6.632 1.756 0 3.24 1.519 3.24 3.316 0 1.86-1.397 3.316-3.18 3.316z"></path><path d="M24.667 12H28v36.667h-3.333z"></path></svg><svg width="60" height="72" viewBox="-5 -5 60 72" id="gold-medal" y="245"><path d="M30.765 30.88a4.455 4.455 0 0 0 3.22-1.384l14.8-15.61a4.453 4.453 0 0 0-.129-6.235l-6.588-6.397A4.414 4.414 0 0 0 38.977 0H10.91c-.507 0-1.007.09-1.479.257l-.046.015-.022.009a4.44 4.44 0 0 0-1.657 1.086L1.232 8.125a4.453 4.453 0 0 0 .094 6.234l15.517 15.249a4.41 4.41 0 0 0 3.11 1.272h3.589v2.707c-6.812.884-12.091 6.722-12.091 13.77 0 7.658 6.23 13.887 13.886 13.887 7.657 0 13.886-6.23 13.886-13.886 0-7.049-5.278-12.887-12.09-13.77V30.88h3.633zm9.302-26.564l6.088 5.91c.33.322.341.855.024 1.19L34.881 23.33l-7.067-6.763L40.067 4.316zm-4.353-.725L25.22 14.085 14.255 3.59h21.459zm-.083 43.767c0 5.677-4.618 10.295-10.295 10.295S15.04 53.035 15.04 47.358s4.618-10.295 10.295-10.295S35.63 41.68 35.63 47.358zm-15.68-20.07a.84.84 0 0 1-.592-.241L3.841 11.797a.849.849 0 0 1-.017-1.187l6.014-6.277L32.41 25.937l-1.032 1.088a.849.849 0 0 1-.613.264H19.952z"></path><path d="M26.426 42.132a1.246 1.246 0 0 0-.694-.204.778.778 0 0 0-.424.102L23.38 43.2c-.283.165-.424.423-.424.774 0 .234.068.443.205.628.136.185.307.278.511.278a.647.647 0 0 0 .365-.117l.424-.263v7.435c0 .224.112.397.336.518.224.122.492.183.803.183.312 0 .58-.06.804-.183.224-.121.336-.294.336-.518v-9.29c0-.205-.105-.375-.314-.512z"></path></svg><svg width="30" height="30" viewBox="-5 -5 30 30" id="linked-in" y="317"><path fill="#9B9B9B" fill-rule="evenodd" d="M18.512 19.013H1.488c-.816 0-1.477-.579-1.477-1.293V2.282C.011 1.569.672.99 1.488.99h17.024c.815 0 1.476.579 1.476 1.292V17.72c0 .714-.661 1.293-1.476 1.293zM3.473 16.044h2.942V7.907H3.473v8.137zM4.964 3.985c-1.007 0-1.664.607-1.664 1.406 0 .78.638 1.406 1.625 1.406h.019c1.026 0 1.664-.626 1.664-1.406-.018-.799-.638-1.406-1.644-1.406zm12.059 7.394c0-2.5-1.452-3.663-3.387-3.663-1.562 0-2.26.789-2.651 1.344V7.907H8.043c.039.764 0 8.137 0 8.137h2.942V11.5c0-.242.019-.486.097-.659.212-.486.697-.989 1.509-.989 1.065 0 1.49.746 1.49 1.84v4.352h2.942v-4.665zm-6.058-2.292l.02-.027v.027h-.02z"></path></svg><svg width="24" height="28" viewBox="-5 -5 24 28" id="pininterest" y="347"><path fill="#9B9B9B" fill-rule="evenodd" d="M7.424 0C2.489 0 .001 3.522.001 6.46c0 1.778.676 3.36 2.127 3.95.238.097.451.003.52-.259.048-.181.162-.639.212-.83.07-.259.043-.35-.149-.576-.419-.491-.686-1.127-.686-2.028 0-2.613 1.964-4.952 5.114-4.952 2.789 0 4.321 1.697 4.321 3.962 0 2.982-1.325 5.498-3.293 5.498-1.086 0-1.899-.895-1.639-1.992.313-1.309.917-2.723.917-3.669 0-.846-.456-1.552-1.401-1.552-1.11 0-2.002 1.144-2.002 2.676 0 .977.331 1.637.331 1.637l-1.336 5.634c-.397 1.672-.059 3.722-.031 3.93.017.122.175.151.247.059.102-.134 1.425-1.759 1.875-3.384.127-.46.73-2.842.73-2.842.361.685 1.416 1.289 2.537 1.289 3.339 0 5.604-3.031 5.604-7.087C13.999 2.857 11.39 0 7.424 0z"></path></svg><svg width="50" height="77" viewBox="-5 -5 50 77" id="smartphone-6" y="375"><path d="M39.885 61V5.135A5.142 5.142 0 0 0 34.75 0H5.182A5.142 5.142 0 0 0 .047 5.135v55.879a5.142 5.142 0 0 0 5.135 5.135H34.75c2.824-.014 5.135-2.311 5.135-5.149zM3.358 11.905h33.203V49.5H3.358V11.905zm1.824-8.594H34.75c1 0 1.824.81 1.824 1.824v3.46H3.358v-3.46c0-1.013.824-1.824 1.824-1.824zM3.358 61v-8.203h33.203V61c0 1-.811 1.824-1.825 1.824H5.182c-1 0-1.824-.81-1.824-1.824z"></path><path d="M23.318 56.297H16.6a1.661 1.661 0 1 0 0 3.324h6.717a1.661 1.661 0 1 0 0-3.324z"></path></svg><svg width="31" height="26" viewBox="-5 -5 31 26" id="twitter" y="452"><path fill="#9B9B9B" fill-rule="evenodd" d="M21.008 1.896a9.062 9.062 0 0 1-2.475.635c.89-.5 1.573-1.292 1.895-2.234a9.05 9.05 0 0 1-2.738.98A4.437 4.437 0 0 0 14.545.001c-2.38 0-4.311 1.809-4.311 4.039 0 .317.038.626.112.921-3.582-.169-6.758-1.777-8.884-4.22a3.829 3.829 0 0 0-.583 2.031c0 1.4.761 2.638 1.917 3.362a4.527 4.527 0 0 1-1.952-.506v.052c0 1.957 1.485 3.589 3.457 3.96a4.696 4.696 0 0 1-1.946.07c.548 1.603 2.14 2.772 4.026 2.805a9.023 9.023 0 0 1-5.353 1.728c-.348 0-.691-.019-1.028-.056a12.81 12.81 0 0 0 6.607 1.815c7.928 0 12.263-6.156 12.263-11.493 0-.176-.005-.349-.013-.523a8.503 8.503 0 0 0 2.151-2.09z"></path></svg></svg>